<svg width="171" height="40" viewBox="0 0 171 40" fill="none" xmlns="http://www.w3.org/2000/svg">
<path d="M3.24175 32.8603L0.785201 29.206H2.55975L4.22835 31.82L5.91019 29.206H7.67149L5.20832 32.8603L7.7973 36.6767H6.036L4.22835 33.8802L2.42732 36.6767H0.666016L3.24175 32.8603Z" fill="white"/>
<path d="M7.96946 29.206H9.66454L11.1544 33.4412C11.3795 34.0446 11.5296 34.612 11.6046 35.1434H11.6576C11.6973 34.8957 11.7702 34.5962 11.8761 34.245C11.982 33.8892 12.5427 32.2096 13.5579 29.206H15.2398L12.1079 37.6696C11.5384 39.2232 10.5893 40 9.26063 40C8.91632 40 8.58083 39.9618 8.25418 39.8852V38.6288C8.48813 38.6829 8.7552 38.7099 9.05537 38.7099C9.8058 38.7099 10.3333 38.2663 10.6379 37.3792L10.9094 36.6767L7.96946 29.206Z" fill="white"/>
<path d="M23.3775 39.3178H21.9274V36.6767H16.9084V39.3178H15.4715V35.4473H16.0675C16.5884 34.6863 17.0011 33.7677 17.3057 32.6914C17.6147 31.6106 17.7979 30.4488 17.8553 29.206H22.3049V35.4473H23.3775V39.3178ZM20.7753 35.4473V30.4218H19.1994C19.1155 31.3495 18.939 32.2636 18.6697 33.1642C18.4048 34.0649 18.0804 34.8259 17.6963 35.4473H20.7753Z" fill="white"/>
<path d="M31.2305 32.9278C31.2305 34.1482 30.9238 35.1006 30.3102 35.7851C29.6966 36.4696 28.8424 36.8118 27.7477 36.8118C27.0635 36.8118 26.4587 36.6542 25.9334 36.339C25.4081 36.0237 25.0042 35.5712 24.7217 34.9813C24.4392 34.3913 24.2979 33.7069 24.2979 32.9278C24.2979 31.7165 24.6025 30.7708 25.2117 30.0908C25.8208 29.4109 26.6794 29.0709 27.7874 29.0709C28.8468 29.0709 29.6855 29.4199 30.3035 30.1178C30.9215 30.8113 31.2305 31.748 31.2305 32.9278ZM25.9003 32.9278C25.9003 34.6525 26.5249 35.5149 27.7742 35.5149C29.0102 35.5149 29.6282 34.6525 29.6282 32.9278C29.6282 31.2211 29.0057 30.3678 27.7609 30.3678C27.1076 30.3678 26.6331 30.5884 26.3373 31.0297C26.046 31.471 25.9003 32.1037 25.9003 32.9278Z" fill="white"/>
<path d="M36.6336 32.8333V29.206H38.0837V32.8333L40.9045 29.206H42.5466L39.6663 32.8197L42.8048 36.6767H41.0899L38.0837 32.8873V36.6767H36.6336V32.8873L33.6341 36.6767H31.9258L35.0577 32.8197L32.184 29.206H33.8262L36.6336 32.8333Z" fill="white"/>
<path d="M47.1352 36.8118C45.9963 36.8118 45.1047 36.4741 44.4602 35.7986C43.8201 35.1186 43.5001 34.1842 43.5001 32.9954C43.5001 31.775 43.798 30.8158 44.394 30.1178C44.9899 29.4199 45.8087 29.0709 46.8505 29.0709C47.8172 29.0709 48.5809 29.3703 49.1415 29.9692C49.7021 30.5682 49.9824 31.3922 49.9824 32.4415V33.2993H45.1024C45.1245 34.0243 45.3165 34.5827 45.6785 34.9745C46.0405 35.3618 46.5503 35.5554 47.2081 35.5554C47.6407 35.5554 48.0424 35.5149 48.4132 35.4338C48.7884 35.3483 49.1901 35.2087 49.6183 35.015V36.3052C49.2386 36.4898 48.8546 36.6204 48.4661 36.697C48.0777 36.7735 47.634 36.8118 47.1352 36.8118ZM46.8505 30.2732C46.3561 30.2732 45.9588 30.4331 45.6586 30.7528C45.3629 31.0725 45.1863 31.5386 45.1289 32.151H48.4529C48.4441 31.5341 48.2984 31.068 48.0159 30.7528C47.7334 30.4331 47.3449 30.2732 46.8505 30.2732Z" fill="white"/>
<path d="M54.7035 36.8118C53.5955 36.8118 52.7524 36.4831 52.1741 35.8256C51.6003 35.1636 51.3134 34.2157 51.3134 32.9819C51.3134 31.7255 51.6135 30.7595 52.2139 30.0841C52.8186 29.4086 53.6904 29.0709 54.8293 29.0709C55.6018 29.0709 56.2971 29.2172 56.9151 29.5099L56.445 30.7866C55.7872 30.5254 55.2443 30.3948 54.8161 30.3948C53.5492 30.3948 52.9157 31.2526 52.9157 32.9683C52.9157 33.8059 53.0724 34.4364 53.3859 34.8597C53.7037 35.2785 54.1672 35.4879 54.7764 35.4879C55.4694 35.4879 56.1249 35.3122 56.7429 34.961V36.3457C56.4648 36.5123 56.1669 36.6317 55.849 36.7037C55.5356 36.7758 55.1538 36.8118 54.7035 36.8118Z" fill="white"/>
<path d="M63.9669 29.206V30.4488H61.5832V36.6767H60.0205V30.4488H57.6368V29.206H63.9669Z" fill="white"/>
<path d="M71.7339 31.1175C71.7339 32.0002 71.2284 32.5338 70.2175 32.7184V32.7725C70.7826 32.84 71.2152 33.0224 71.5153 33.3196C71.8155 33.6168 71.9656 34.0018 71.9656 34.4747C71.9656 35.1816 71.7007 35.7265 71.171 36.1093C70.6457 36.4876 69.8798 36.6767 68.8734 36.6767H65.3773V29.206H68.8601C70.7759 29.206 71.7339 29.8432 71.7339 31.1175ZM70.3698 34.3801C70.3698 34.0198 70.233 33.7654 69.9593 33.6168C69.6856 33.4637 69.2751 33.3871 68.7277 33.3871H66.9333V35.5014H68.7674C69.8357 35.5014 70.3698 35.1276 70.3698 34.3801ZM70.1778 31.2526C70.1778 30.9554 70.063 30.7415 69.8335 30.6109C69.6084 30.4758 69.2707 30.4083 68.8204 30.4083H66.9333V32.2051H68.5887C69.1096 32.2051 69.5046 32.1375 69.7739 32.0024C70.0432 31.8628 70.1778 31.6129 70.1778 31.2526Z" fill="white"/>
<path d="M76.7728 36.8118C75.6339 36.8118 74.7422 36.4741 74.0977 35.7986C73.4576 35.1186 73.1376 34.1842 73.1376 32.9954C73.1376 31.775 73.4356 30.8158 74.0315 30.1178C74.6274 29.4199 75.4463 29.0709 76.488 29.0709C77.4548 29.0709 78.2184 29.3703 78.7791 29.9692C79.3397 30.5682 79.62 31.3922 79.62 32.4415V33.2993H74.74C74.7621 34.0243 74.9541 34.5827 75.316 34.9745C75.678 35.3618 76.1879 35.5554 76.8456 35.5554C77.2782 35.5554 77.6799 35.5149 78.0507 35.4338C78.4259 35.3483 78.8276 35.2087 79.2558 35.015V36.3052C78.8762 36.4898 78.4921 36.6204 78.1037 36.697C77.7152 36.7735 77.2716 36.8118 76.7728 36.8118ZM76.488 30.2732C75.9936 30.2732 75.5964 30.4331 75.2962 30.7528C75.0004 31.0725 74.8239 31.5386 74.7665 32.151H78.0904C78.0816 31.5341 77.9359 31.068 77.6534 30.7528C77.3709 30.4331 76.9824 30.2732 76.488 30.2732Z" fill="white"/>
<path d="M82.9439 29.206V32.2051H86.3937V29.206H87.9497V36.6767H86.3937V33.4547H82.9439V36.6767H81.3879V29.206H82.9439Z" fill="white"/>
<path d="M91.7372 29.206V32.2051H95.187V29.206H96.743V36.6767H95.187V33.4547H91.7372V36.6767H90.1812V29.206H91.7372Z" fill="white"/>
<path d="M103.556 36.6767L103.245 35.6365H103.192C102.839 36.0913 102.484 36.402 102.126 36.5686C101.769 36.7307 101.31 36.8118 100.749 36.8118C100.029 36.8118 99.4666 36.6137 99.0605 36.2174C98.6588 35.8211 98.4579 35.2605 98.4579 34.5354C98.4579 33.7654 98.7383 33.1845 99.2989 32.7927C99.8595 32.4009 100.714 32.187 101.861 32.151L103.126 32.1105V31.712C103.126 31.2346 103.016 30.8789 102.795 30.6447C102.579 30.406 102.241 30.2867 101.782 30.2867C101.407 30.2867 101.047 30.343 100.703 30.4556C100.358 30.5682 100.027 30.701 99.7094 30.8541L99.2062 29.7193C99.6035 29.5077 100.038 29.3478 100.511 29.2397C100.983 29.1272 101.429 29.0709 101.848 29.0709C102.78 29.0709 103.481 29.278 103.954 29.6923C104.43 30.1066 104.669 30.7573 104.669 31.6444V36.6767H103.556ZM101.239 35.5959C101.804 35.5959 102.256 35.4361 102.596 35.1164C102.941 34.7921 103.113 34.3396 103.113 33.7587V33.1102L102.173 33.1507C101.44 33.1777 100.906 33.3038 100.57 33.529C100.239 33.7496 100.074 34.0896 100.074 34.549C100.074 34.8822 100.171 35.1411 100.365 35.3257C100.559 35.5059 100.85 35.5959 101.239 35.5959Z" fill="white"/>
<path d="M107.589 36.6767H105.847L107.887 33.6168C107.392 33.4727 107.004 33.216 106.721 32.8468C106.439 32.473 106.298 32.0114 106.298 31.462C106.298 30.755 106.545 30.2034 107.039 29.8071C107.534 29.4063 108.209 29.206 109.065 29.206H112.403V36.6767H110.84V33.7992H109.363L107.589 36.6767ZM107.814 31.4755C107.814 31.8583 107.955 32.1465 108.238 32.3402C108.525 32.5293 108.909 32.6239 109.39 32.6239H110.84V30.4083H109.145C108.721 30.4083 108.392 30.5006 108.158 30.6852C107.929 30.8699 107.814 31.1333 107.814 31.4755Z" fill="white"/>
<path d="M122.884 29.206V30.4488H119.706V36.6767H118.15V29.206H122.884Z" fill="white"/>
<path d="M128.877 36.6767L128.566 35.6365H128.513C128.159 36.0913 127.804 36.402 127.447 36.5686C127.089 36.7307 126.63 36.8118 126.069 36.8118C125.35 36.8118 124.787 36.6137 124.381 36.2174C123.979 35.8211 123.778 35.2605 123.778 34.5354C123.778 33.7654 124.059 33.1845 124.619 32.7927C125.18 32.4009 126.034 32.187 127.182 32.151L128.446 32.1105V31.712C128.446 31.2346 128.336 30.8789 128.115 30.6447C127.899 30.406 127.561 30.2867 127.102 30.2867C126.727 30.2867 126.367 30.343 126.023 30.4556C125.679 30.5682 125.348 30.701 125.03 30.8541L124.527 29.7193C124.924 29.5077 125.359 29.3478 125.831 29.2397C126.303 29.1272 126.749 29.0709 127.168 29.0709C128.1 29.0709 128.802 29.278 129.274 29.6923C129.751 30.1066 129.989 30.7573 129.989 31.6444V36.6767H128.877ZM126.559 35.5959C127.124 35.5959 127.577 35.4361 127.917 35.1164C128.261 34.7921 128.433 34.3396 128.433 33.7587V33.1102L127.493 33.1507C126.76 33.1777 126.226 33.3038 125.891 33.529C125.559 33.7496 125.394 34.0896 125.394 34.549C125.394 34.8822 125.491 35.1411 125.685 35.3257C125.88 35.5059 126.171 35.5959 126.559 35.5959Z" fill="white"/>
<path d="M138.18 36.6767H136.611V30.4488H134.591C134.468 32.052 134.3 33.3038 134.088 34.2045C133.88 35.1051 133.607 35.7626 133.267 36.1768C132.931 36.5911 132.494 36.7983 131.956 36.7983C131.616 36.7983 131.331 36.7487 131.102 36.6497V35.4068C131.265 35.4699 131.428 35.5014 131.592 35.5014C132.042 35.5014 132.395 34.9858 132.651 33.9545C132.911 32.9188 133.115 31.336 133.26 29.206H138.18V36.6767Z" fill="white"/>
<path d="M143.609 36.8118C142.471 36.8118 141.579 36.4741 140.934 35.7986C140.294 35.1186 139.974 34.1842 139.974 32.9954C139.974 31.775 140.272 30.8158 140.868 30.1178C141.464 29.4199 142.283 29.0709 143.325 29.0709C144.292 29.0709 145.055 29.3703 145.616 29.9692C146.176 30.5682 146.457 31.3922 146.457 32.4415V33.2993H141.577C141.599 34.0243 141.791 34.5827 142.153 34.9745C142.515 35.3618 143.025 35.5554 143.682 35.5554C144.115 35.5554 144.517 35.5149 144.887 35.4338C145.263 35.3483 145.664 35.2087 146.093 35.015V36.3052C145.713 36.4898 145.329 36.6204 144.94 36.697C144.552 36.7735 144.108 36.8118 143.609 36.8118ZM143.325 30.2732C142.83 30.2732 142.433 30.4331 142.133 30.7528C141.837 31.0725 141.661 31.5386 141.603 32.151H144.927C144.918 31.5341 144.773 31.068 144.49 30.7528C144.208 30.4331 143.819 30.2732 143.325 30.2732Z" fill="white"/>
<path d="M151.939 36.8118C151.012 36.8118 150.293 36.4718 149.781 35.7918H149.688C149.75 36.4223 149.781 36.805 149.781 36.9401V40H148.225V29.206H149.483C149.518 29.3456 149.591 29.6788 149.701 30.2057H149.781C150.266 29.4491 150.995 29.0709 151.966 29.0709C152.879 29.0709 153.59 29.4086 154.098 30.0841C154.61 30.7595 154.866 31.7075 154.866 32.9278C154.866 34.1482 154.605 35.1006 154.085 35.7851C153.568 36.4696 152.853 36.8118 151.939 36.8118ZM151.562 30.3678C150.944 30.3678 150.491 30.5524 150.204 30.9217C149.922 31.2909 149.781 31.8808 149.781 32.6914V32.9278C149.781 33.8375 149.922 34.4972 150.204 34.907C150.487 35.3122 150.948 35.5149 151.588 35.5149C152.127 35.5149 152.542 35.2897 152.833 34.8394C153.124 34.3891 153.27 33.7474 153.27 32.9143C153.27 32.0767 153.124 31.444 152.833 31.0162C152.546 30.5839 152.122 30.3678 151.562 30.3678Z" fill="white"/>
<path d="M159.872 36.8118C158.733 36.8118 157.841 36.4741 157.197 35.7986C156.557 35.1186 156.237 34.1842 156.237 32.9954C156.237 31.775 156.535 30.8158 157.13 30.1178C157.726 29.4199 158.545 29.0709 159.587 29.0709C160.554 29.0709 161.317 29.3703 161.878 29.9692C162.439 30.5682 162.719 31.3922 162.719 32.4415V33.2993H157.839C157.861 34.0243 158.053 34.5827 158.415 34.9745C158.777 35.3618 159.287 35.5554 159.945 35.5554C160.377 35.5554 160.779 35.5149 161.15 35.4338C161.525 35.3483 161.927 35.2087 162.355 35.015V36.3052C161.975 36.4898 161.591 36.6204 161.203 36.697C160.814 36.7735 160.371 36.8118 159.872 36.8118ZM159.587 30.2732C159.093 30.2732 158.695 30.4331 158.395 30.7528C158.099 31.0725 157.923 31.5386 157.865 32.151H161.189C161.181 31.5341 161.035 31.068 160.752 30.7528C160.47 30.4331 160.081 30.2732 159.587 30.2732Z" fill="white"/>
<path d="M165.235 36.6767H163.494L165.533 33.6168C165.039 33.4727 164.65 33.216 164.368 32.8468C164.085 32.473 163.944 32.0114 163.944 31.462C163.944 30.755 164.191 30.2034 164.686 29.8071C165.18 29.4063 165.855 29.206 166.712 29.206H170.049V36.6767H168.486V33.7992H167.01L165.235 36.6767ZM165.46 31.4755C165.46 31.8583 165.601 32.1465 165.884 32.3402C166.171 32.5293 166.555 32.6239 167.036 32.6239H168.486V30.4083H166.791C166.367 30.4083 166.038 30.5006 165.805 30.6852C165.575 30.8699 165.46 31.1333 165.46 31.4755Z" fill="white"/>
<path d="M0.5 21.6516H11.9589C16.4781 21.6516 18.7914 19.5638 18.7914 15.5892V15.5273C18.7914 12.5734 17.3207 10.7794 14.4866 10.2691V9.99068C16.8611 9.52672 18.102 7.94924 18.102 5.38198V5.30465C18.102 1.80946 15.942 0 11.7138 0H0.5V21.6516ZM5.01922 8.8617V3.06216H10.3657C12.5257 3.06216 13.5981 4.02102 13.5981 5.9078V5.96966C13.5981 7.88738 12.5257 8.8617 10.3657 8.8617H5.01922ZM5.01922 18.574V11.6764H10.5036C12.8781 11.6764 14.0577 12.8209 14.0577 15.0633V15.1252C14.0577 17.4141 12.8781 18.574 10.5036 18.574H5.01922Z" fill="white"/>
<path d="M23.0483 0V21.6516H27.5063V0H23.0483Z" fill="white"/>
<path d="M36.8339 22.0537C40.434 22.0537 43.0536 20.4299 44.0187 17.677L44.3251 17.7543C43.743 20.7546 44.3558 22.0537 47.8792 22.0537C48.3235 22.0537 48.7678 22.0073 49.1354 21.9455L49.6563 19.27L48.8903 19.2545C48.0477 19.239 47.8026 19.038 47.8026 17.9399V10.501C47.8026 6.82026 45.3822 5.0572 40.2195 5.0572C34.7352 5.0572 31.9624 7.23783 32.1922 11.0114L36.5888 11.3826C36.405 8.89263 37.6612 7.76366 40.1276 7.76366C42.3336 7.76366 43.3753 8.58333 43.3753 10.4546V11.3671L39.0246 12.1713C34.6739 12.991 31.7939 14.3829 31.7939 17.7853V17.8317C31.7939 20.5227 33.6015 22.0537 36.8339 22.0537ZM38.611 19.0534C37.1097 19.0534 36.2978 18.5121 36.2978 17.3986V17.3677C36.2978 15.7748 37.7225 15.1252 40.5412 14.5685L43.3753 14.0117V14.7695C43.3753 17.2594 41.154 19.0534 38.611 19.0534Z" fill="white"/>
<path d="M53.4077 21.6516H57.8656V14.1045C57.8656 10.4546 59.5661 8.19669 62.3849 8.19669C64.4836 8.19669 65.5253 9.29474 65.5253 11.398V21.6516H69.9833V10.3155C69.9833 6.91306 68.0071 5.11906 64.3304 5.11906C60.9908 5.11906 58.7082 6.60375 57.3601 9.69684L57.0537 9.55765C57.6665 7.71726 57.881 6.61921 57.881 5.41291H53.4077V21.6516Z" fill="white"/>
<path d="M83.248 22.0383C88.5026 22.0383 91.4439 19.904 91.8882 15.7748L87.3843 15.2644C87.2005 17.8626 85.7911 19.1772 83.2634 19.1772C80.4293 19.1772 78.9586 17.3832 78.9586 13.8416V13.0838C78.9586 9.61951 80.4446 7.87191 83.2174 7.87191C85.7757 7.87191 87.1085 9.3102 87.3077 12.1868L91.7503 11.6764C91.398 7.29969 88.5639 5.02627 83.2327 5.02627C77.442 5.02627 74.3934 7.88738 74.3934 13.3621V13.5632C74.3934 19.1308 77.4114 22.0383 83.248 22.0383Z" fill="white"/>
<path d="M96.329 21.6516H100.787V14.1045C100.787 10.4546 102.472 8.21215 105.306 8.21215C107.405 8.21215 108.447 9.29474 108.447 11.398V21.6516H112.905V10.3155C112.905 6.91306 110.913 5.11906 107.252 5.11906C103.881 5.11906 101.614 6.60375 100.281 9.68137L99.9597 9.55765C100.557 7.82552 100.772 6.54189 100.787 5.01081V0H96.329V21.6516Z" fill="white"/>
<path d="M122.156 22.0537C125.756 22.0537 128.375 20.4299 129.34 17.677L129.647 17.7543C129.065 20.7546 129.677 22.0537 133.201 22.0537C133.645 22.0537 134.089 22.0073 134.457 21.9455L134.978 19.27L134.212 19.2545C133.369 19.239 133.124 19.038 133.124 17.9399V10.501C133.124 6.82026 130.704 5.0572 125.541 5.0572C120.057 5.0572 117.284 7.23783 117.514 11.0114L121.911 11.3826C121.727 8.89263 122.983 7.76366 125.449 7.76366C127.655 7.76366 128.697 8.58333 128.697 10.4546V11.3671L124.346 12.1713C119.996 12.991 117.116 14.3829 117.116 17.7853V17.8317C117.116 20.5227 118.923 22.0537 122.156 22.0537ZM123.933 19.0534C122.431 19.0534 121.619 18.5121 121.619 17.3986V17.3677C121.619 15.7748 123.044 15.1252 125.863 14.5685L128.697 14.0117V14.7695C128.697 17.2594 126.476 19.0534 123.933 19.0534Z" fill="white"/>
<path d="M138.729 21.6516H143.187V14.8623C143.187 10.6248 144.489 9.06275 147.89 8.81531L150.081 8.64519L149.56 4.90255C145.96 5.18093 144.29 6.32537 142.636 9.69684L142.345 9.55765C143.065 7.39249 143.233 6.52642 143.203 5.41291H138.729V21.6516Z" fill="white"/>
<path d="M159.93 21.9455C163.239 21.9455 165.399 20.3989 166.486 17.5997L166.808 17.7079C166.287 19.4091 166.011 20.7546 165.996 21.6516H170.5V0H166.042V4.40765C166.042 6.10885 166.272 7.48528 166.823 9.3566L166.517 9.48032C165.429 6.69654 163.254 5.08813 159.93 5.08813C155.334 5.08813 152.913 7.91831 152.913 13.3312V13.7179C152.913 19.1153 155.334 21.9455 159.93 21.9455ZM161.615 19.1617C158.857 19.1617 157.417 17.3832 157.417 13.8725V13.1611C157.417 9.63498 158.857 7.84098 161.615 7.84098C164.495 7.84098 166.042 9.72777 166.042 13.2384V13.7952C166.042 17.2904 164.495 19.1617 161.615 19.1617Z" fill="white"/>
</svg>
